<svg width="1920" height="1080" viewBox="0 0 1920 1080" fill="none" xmlns="http://www.w3.org/2000/svg">
<g clip-path="url(#clip0_126_15)">
<path d="M1998.89 339.239C1998.89 339.239 2069.84 116.605 1975.03 80.5075C1869.76 40.4229 1893.04 357.134 1893.04 357.134C1893.04 357.134 1663.7 106.499 1614.25 222.176C1568.6 328.968 1796.13 463.013 1796.13 463.013C1796.13 463.013 1464.46 493.607 1494.98 623.322C1526.33 756.537 1843.09 583.804 1843.09 583.804C1843.09 583.804 1730.51 849.688 1843.09 904.422C1968.27 965.28 1998.89 583.804 1998.89 583.804C1998.89 583.804 2263.73 834.745 2335.82 713.543C2406.75 594.278 2083.86 463.013 2083.86 463.013C2083.86 463.013 2329.74 387.021 2298.55 281.826C2264.66 167.562 1998.89 339.239 1998.89 339.239Z" stroke="black" stroke-width="20"/>
</g>
<defs>
<clipPath id="clip0_126_15">
<rect width="1920" height="1080" fill="white"/>
</clipPath>
</defs>
</svg>
