<svg width="1920" height="1080" viewBox="0 0 1920 1080" fill="none" xmlns="http://www.w3.org/2000/svg">
<g clip-path="url(#clip0_126_15)">
<path d="M187.867 -183.128C0.504456 -165.164 168.749 115.265 168.749 115.265C168.749 115.265 -205.212 -152.366 -193.741 229.854C-182.271 612.075 158.042 316.758 158.042 316.758C158.042 316.758 -134.856 585.926 158.042 647.451C450.941 708.975 317.874 316.758 317.874 316.758C317.874 316.758 494.531 647.451 665.835 416.735C837.138 186.018 405.056 192.171 405.056 192.171C405.056 192.171 830.29 179.866 643.657 -70.8462C457.025 -321.558 317.874 64.5075 317.874 64.5075C317.874 64.5075 375.231 -201.092 187.867 -183.128Z" stroke="black" stroke-width="20"/>
</g>
<defs>
<clipPath id="clip0_126_15">
<rect width="1920" height="1080" fill="white"/>
</clipPath>
</defs>
</svg>
