<svg width="1980" height="1633" viewBox="0 0 1980 1633" fill="none" xmlns="http://www.w3.org/2000/svg">
<path d="M1976.11 35.2817C1969.01 14.3868 1960.54 8.88816 1947.31 3.66443C1918.38 -7.05796 1869.38 9.1631 1869.38 9.1631C1869.38 9.1631 134.538 632.711 35.4274 701.72C14.0873 716.566 6.9376 725.364 3.39009 735.536C-13.7424 784.474 39.635 806.194 39.635 806.194L486.786 951.909C486.786 951.909 503.451 954.383 509.391 950.534C611.114 886.2 1532.83 304.441 1585.99 284.921C1594.38 282.446 1600.59 285.196 1598.94 290.97C1577.66 365.751 777.103 1077 777.103 1077C777.103 1077 774.051 1080.85 772.126 1085.25L771.081 1084.7L729.364 1528.17C729.364 1528.17 711.874 1663.99 847.752 1528.17C943.617 1432.22 1036.37 1351.94 1082.79 1313.17C1236.55 1419.29 1402.01 1536.69 1473.43 1598C1509.29 1628.79 1539.3 1633.74 1563.99 1632.92C1631.78 1630.44 1650.7 1555.94 1650.7 1555.94C1650.7 1555.94 1966.84 283.821 1977.4 113.363C1978.44 96.5919 1979.87 86.1442 1979.98 74.597C1980.18 58.6508 1978.69 42.7049 1976.11 35.2817Z" fill="black"/>
</svg>
